<?xml version="1.0" encoding="UTF-8" standalone="no"?>
<!-- Created with Inkscape (http://www.inkscape.org/) -->

<svg
   xmlns:dc="http://purl.org/dc/elements/1.1/"
   xmlns:cc="http://creativecommons.org/ns#"
   xmlns:rdf="http://www.w3.org/1999/02/22-rdf-syntax-ns#"
   xmlns:svg="http://www.w3.org/2000/svg"
   xmlns="http://www.w3.org/2000/svg"
   xmlns:sodipodi="http://sodipodi.sourceforge.net/DTD/sodipodi-0.dtd"
   xmlns:inkscape="http://www.inkscape.org/namespaces/inkscape"
   width="210mm"
   height="297mm"
   viewBox="0 0 210 297"
   version="1.1"
   id="svg8"
   inkscape:version="0.92.5 (2060ec1f9f, 2020-04-08)"
   sodipodi:docname="pillars-possible-logos.svg">
  <defs
     id="defs2" />
  <sodipodi:namedview
     id="base"
     pagecolor="#ffffff"
     bordercolor="#666666"
     borderopacity="1.0"
     inkscape:pageopacity="0.0"
     inkscape:pageshadow="2"
     inkscape:zoom="2.3786988"
     inkscape:cx="502.16246"
     inkscape:cy="248.37809"
     inkscape:document-units="mm"
     inkscape:current-layer="layer1"
     showgrid="false"
     inkscape:window-width="1920"
     inkscape:window-height="1051"
     inkscape:window-x="0"
     inkscape:window-y="0"
     inkscape:window-maximized="1" />
  <metadata
     id="metadata5">
    <rdf:RDF>
      <cc:Work
         rdf:about="">
        <dc:format>image/svg+xml</dc:format>
        <dc:type
           rdf:resource="http://purl.org/dc/dcmitype/StillImage" />
        <dc:title></dc:title>
      </cc:Work>
    </rdf:RDF>
  </metadata>
  <g
     inkscape:label="Layer 1"
     inkscape:groupmode="layer"
     id="layer1">
    <path
       style="opacity:1;vector-effect:none;fill:#ffd898;fill-opacity:1;stroke:none;stroke-width:1.55174935;stroke-linecap:butt;stroke-linejoin:miter;stroke-miterlimit:4;stroke-dasharray:none;stroke-dashoffset:0;stroke-opacity:1"
       d="m 41.585575,-10.199379 c -0.528912,0 -0.909936,0.4274237 -0.954463,0.9544631 L 37.210132,31.24512 c -0.04453,0.52704 0.425553,0.954464 0.954463,0.954464 h 4.919596 0.529167 4.919596 c 0.52891,0 0.998993,-0.427424 0.954463,-0.954464 L 46.066439,-9.2449159 c -0.04453,-0.5270394 -0.425553,-0.9544631 -0.954465,-0.9544631 h -1.498616 -0.529167 z"
       id="rect815"
       inkscape:connector-curvature="0" />
    <path
       inkscape:connector-curvature="0"
       style="opacity:1;vector-effect:none;fill:#ffd898;fill-opacity:1;stroke:none;stroke-width:1.37448525;stroke-linecap:butt;stroke-linejoin:miter;stroke-miterlimit:4;stroke-dasharray:none;stroke-dashoffset:0;stroke-opacity:1"
       d="m 54.721714,-5.409296 c -0.468386,0.01 -0.79772,0.39573 -0.82718,0.8633 l -2.263468,35.92119 c -0.02946,0.46757 0.394912,0.83719 0.863295,0.82719 l 4.356612,-0.0931 0.468611,-0.01 4.356612,-0.0931 c 0.468383,-0.01 0.876584,-0.39742 0.827179,-0.86331 l -3.795517,-35.79174 c -0.0494,-0.46589 -0.394911,-0.83719 -0.863296,-0.82718 l -1.327119,0.0283 -0.468611,0.01 z"
       id="rect815-6" />
    <path
       inkscape:connector-curvature="0"
       style="opacity:1;vector-effect:none;fill:#ffd898;fill-opacity:1;stroke:none;stroke-width:1.55174935;stroke-linecap:butt;stroke-linejoin:miter;stroke-miterlimit:4;stroke-dasharray:none;stroke-dashoffset:0;stroke-opacity:1"
       d="m 78.728042,-13.564436 c -0.528913,0 -0.909937,0.42742 -0.954464,0.95446 l -3.42098,40.49004 c -0.04453,0.52704 0.425553,0.95446 0.954463,0.95446 h 4.919596 0.529167 4.919596 c 0.52891,0 0.998993,-0.42742 0.954464,-0.95446 l -3.420978,-40.49004 c -0.04453,-0.52704 -0.425553,-0.95446 -0.954466,-0.95446 h -1.498616 -0.529167 z"
       id="rect815-4" />
    <path
       style="opacity:1;vector-effect:none;fill:#000000;fill-opacity:1;stroke:none;stroke-width:2.09280038;stroke-linecap:butt;stroke-linejoin:miter;stroke-miterlimit:4;stroke-dasharray:none;stroke-dashoffset:0;stroke-opacity:1"
       d="m 15.607037,5.5778538 h 5.613912 c 0.497054,0 0.910549,0.400335 0.89721,0.89721 L 20.902083,51.776476 c -0.01334,0.496876 -0.400156,0.897211 -0.89721,0.897211 h -9.979538 c -0.4970542,0 -0.9579942,-0.403887 -0.8972102,-0.897211 L 14.709827,6.4750638 c 0.06078,-0.493323 0.400156,-0.89721 0.89721,-0.89721 z"
       id="rect863"
       inkscape:connector-curvature="0"
       sodipodi:nodetypes="sssssssss" />
    <path
       style="opacity:1;vector-effect:none;fill:#ffd898;fill-opacity:1;stroke:none;stroke-width:7.90979671;stroke-linecap:butt;stroke-linejoin:miter;stroke-miterlimit:4;stroke-dasharray:none;stroke-dashoffset:0;stroke-opacity:1"
       d="M 28.016769,13.713827 H 23.37268 c -0.411187,0 -0.753249,0.331176 -0.742214,0.742214 l 1.005994,37.475432 c 0.01104,0.411038 0.331029,0.742214 0.742214,0.742214 h 8.255538 c 0.411186,0 0.792497,-0.334113 0.742214,-0.742214 L 28.758983,14.456041 c -0.05028,-0.4081 -0.331028,-0.742214 -0.742214,-0.742214 z"
       id="rect863-3"
       inkscape:connector-curvature="0"
       sodipodi:nodetypes="sssssssss" />
    <path
       style="opacity:1;vector-effect:none;fill:#ffd898;fill-opacity:1;stroke:none;stroke-width:2.09280038;stroke-linecap:butt;stroke-linejoin:miter;stroke-miterlimit:4;stroke-dasharray:none;stroke-dashoffset:0;stroke-opacity:1"
       d="M 9.4873839,52.309172 C 9.2122463,52.005147 9.4110728,50.168571 11.983693,29.250494 13.521086,16.749902 14.861513,6.3327197 14.96242,6.1011987 c 0.179901,-0.4127686 0.245102,-0.4209495 3.35462,-0.4209495 2.633657,0 3.220995,0.04984 3.465206,0.2940474 0.252087,0.252087 0.278622,0.712634 0.185957,3.2272816 -0.05945,1.6132758 -0.346983,11.9374468 -0.638964,22.9425998 -0.493389,18.596644 -0.554331,20.026527 -0.86316,20.252349 -0.253519,0.185377 -1.558804,0.242977 -5.506022,0.242977 -4.707226,0 -5.2006814,-0.02978 -5.4726731,-0.330332 z"
       id="path881"
       inkscape:connector-curvature="0" />
    <path
       style="opacity:1;vector-effect:none;fill:#ffd898;fill-opacity:1;stroke:none;stroke-width:2.09280038;stroke-linecap:butt;stroke-linejoin:miter;stroke-miterlimit:4;stroke-dasharray:none;stroke-dashoffset:0;stroke-opacity:1"
       d="M 18.426781,5.743318 C 16.898813,5.741148 15.536796,5.763426 15.400094,5.792411 15.257872,5.822566 15.111915,5.9074549 15.058511,5.9908489 14.895623,6.2452114 13.666912,15.744584 11.38225,34.413919 9.6443215,48.615575 9.3385452,51.39293 9.4428334,52.035582 c 0.055192,0.340103 0.2352092,0.436766 0.9270766,0.49816 0.827103,0.07339 7.741501,0.07902 8.850621,0.0072 0.967518,-0.06262 1.245918,-0.124471 1.309998,-0.291455 0.21799,-0.568076 0.294872,-2.581031 0.773596,-20.316073 C 21.66612,18.522754 21.80265,13.638469 21.900472,10.60142 22.001035,7.4793153 21.989266,6.4487738 21.849828,6.169649 21.644874,5.7593729 21.554225,5.747763 18.426781,5.743318 Z m 7.255889,7.981942 c -1.222719,-0.01284 -2.451555,0.04385 -2.669088,0.181385 -0.326522,0.206446 -0.346556,-1.390571 0.277503,21.766112 0.319953,11.872296 0.504365,16.503425 0.665591,16.69769 0.324136,0.390556 8.817388,0.39825 9.141045,0.0083 0.166182,-0.200239 -0.325208,-4.654227 -2.120284,-19.2195 -1.978281,-16.051802 -2.386409,-18.995726 -2.661338,-19.196761 -0.194,-0.141857 -1.41071,-0.224357 -2.633429,-0.237194 z"
       id="path883"
       inkscape:connector-curvature="0" />
    <path
       style="opacity:1;vector-effect:none;fill:#ffd898;fill-opacity:1;stroke:none;stroke-width:2.09280038;stroke-linecap:butt;stroke-linejoin:miter;stroke-miterlimit:4;stroke-dasharray:none;stroke-dashoffset:0;stroke-opacity:1"
       d="m 17.132286,5.710761 c -0.106587,3.413e-4 -0.159334,0.00421 -0.25528,0.00517 -0.338797,0.00284 -0.598824,0.00811 -0.783416,0.015502 -0.02,8.996e-4 -0.04588,0.00162 -0.06511,0.00258 -0.03534,0.00171 -0.09965,0.00274 -0.125058,0.00465 -0.04479,0.00336 -0.06812,0.00805 -0.108519,0.011369 -0.08773,0.00699 -0.164258,0.015698 -0.232029,0.024805 -0.102896,0.013525 -0.204073,0.028514 -0.273367,0.054261 -0.06114,0.019796 -0.111022,0.041587 -0.142626,0.06718 -0.01291,0.010456 -0.0256,0.027943 -0.03824,0.043408 -0.0084,0.00722 -0.02053,0.013364 -0.02687,0.021188 -0.007,0.00858 -0.01559,0.037468 -0.02326,0.054261 -0.04701,0.084878 -0.08793,0.1955112 -0.110588,0.3167751 -0.0082,0.04405 -0.0338,0.2318226 -0.04702,0.3167777 -0.01136,0.072705 -0.02221,0.129532 -0.03462,0.2160058 -2.41e-4,0.00167 -7.94e-4,0.00711 -10e-4,0.00879 -0.0035,0.024297 -0.01341,0.1015312 -0.01705,0.1271217 -3.2e-4,0.00225 -0.0012,0.0086 -0.0016,0.010853 -0.09623,0.6681364 -0.266096,1.9500532 -0.469222,3.5021117 -1.19e-4,9.21e-4 -3.97e-4,0.0011 -5.16e-4,0.0021 -8.68e-4,0.0066 -0.0022,0.01658 -0.0031,0.02325 -0.683006,5.219821 -1.850221,14.480362 -2.958992,23.544299 -1.373375,11.227025 -1.8795811,15.567213 -1.9792073,17.172078 -0.01723,-0.03117 -0.029781,-0.01412 -0.032557,0.05323 -0.00243,0.05887 0.0087,0.09357 0.025323,0.09043 -0.017126,0.335169 -0.019981,0.574056 0.00103,0.669727 0.02695,0.122708 0.084193,0.213463 0.1819011,0.283186 0.04821,0.03588 0.1052777,0.06675 0.1793187,0.09147 0.00976,0.0033 0.02436,0.0052 0.034623,0.0083 0.046037,0.01415 0.1016265,0.02604 0.1576123,0.03721 0.058502,0.01113 0.1279472,0.02035 0.1989542,0.02894 0.04438,0.0056 0.07668,0.01389 0.126089,0.0186 0.10349,0.0099 0.482667,0.01929 0.959634,0.02791 0.07085,0.0011 0.121687,0.0026 0.198437,0.0036 0.818113,0.01311 1.940211,0.02358 3.157429,0.02636 1.143685,0.0026 2.046864,-0.0041 2.83962,-0.01499 0.0078,-1.09e-4 0.02012,1.08e-4 0.02791,0 0.860462,-0.0085 1.537655,-0.02142 1.796272,-0.03928 0.05518,-0.0038 0.09955,-0.01006 0.153998,-0.01447 0.0061,-3.44e-4 0.0084,-6.85e-4 0.01447,-10e-4 0.22914,-0.01318 0.403995,-0.02896 0.549322,-0.04599 0.05506,-0.0064 0.11062,-0.01267 0.153996,-0.01964 0.02359,-0.0038 0.0486,-0.0079 0.06873,-0.01188 0.06855,-0.01346 0.12397,-0.02746 0.152964,-0.04289 5.53e-4,-2.96e-4 9.97e-4,-7.38e-4 0.0015,-10e-4 0.155906,-0.0836 0.249751,-0.256918 0.349332,-1.946651 0.02063,-0.330657 0.0417,-0.708337 0.06304,-1.182356 6.96e-4,-0.01544 0.0014,-0.02621 0.0021,-0.04186 1.59e-4,-0.0037 3.6e-4,-0.01026 5.19e-4,-0.01395 0.01255,-0.282286 0.02965,-0.809585 0.04341,-1.171503 0.02302,-0.610952 0.04615,-1.225881 0.07235,-2.03295 0.0088,-0.275656 0.02043,-0.681752 0.02997,-0.991672 0.04175,-1.335201 0.09798,-3.290546 0.151411,-5.177461 6.56e-4,-0.02311 0.0019,-0.06155 0.0026,-0.08475 0.0046,-0.16433 0.01232,-0.460836 0.01705,-0.630455 0.0833,-2.959343 0.167127,-5.968756 0.290422,-10.503233 0.199819,-7.348802 0.407827,-14.819974 0.461987,-16.602604 0.07984,-2.6276849 0.11013,-4.0721856 0.09199,-4.8901396 -7.44e-4,-0.0439 -4.29e-4,-0.1046824 -0.0016,-0.1431449 v -5.16e-4 c -0.0032,-0.1111461 -0.0089,-0.2004562 -0.01447,-0.2852552 -0.0029,-0.046418 -0.0047,-0.1035605 -0.0083,-0.1426263 -0.0021,-0.022294 -0.0054,-0.035039 -0.0078,-0.055293 -0.0082,-0.071644 -0.01692,-0.1417161 -0.02791,-0.1901693 -0.01398,-0.062833 -0.03006,-0.1097094 -0.04857,-0.1467617 -0.02436,-0.048773 -0.04829,-0.091662 -0.07596,-0.1297093 -2.15e-4,-2.964e-4 -3.02e-4,-7.356e-4 -5.16e-4,-0.00103 -0.0014,-0.00196 -0.0037,-0.00323 -0.0052,-0.00517 -0.02034,-0.026898 -0.04514,-0.051028 -0.07338,-0.072864 -0.170595,-0.1396841 -0.559445,-0.189185 -1.544608,-0.214974 -0.345321,-0.0094 -0.750615,-0.016674 -1.276924,-0.023773 -0.02023,-2.725e-4 -0.03762,-2.54e-4 -0.05788,-5.159e-4 -0.0049,-6.35e-5 -0.0091,6.08e-5 -0.01395,0 -0.668121,-0.00833 -1.217774,-0.01229 -1.669151,-0.010853 z"
       id="path891"
       inkscape:connector-curvature="0" />
    <path
       style="opacity:1;vector-effect:none;fill:#ffd898;fill-opacity:1;stroke:none;stroke-width:0.18497917;stroke-linecap:butt;stroke-linejoin:miter;stroke-miterlimit:4;stroke-dasharray:none;stroke-dashoffset:0;stroke-opacity:1"
       d="m 12.107788,28.38328 -0.01188,0.05271 c -0.01166,0.0532 -0.642601,5.201086 -1.262973,10.301179 -1.1223568,9.226907 -1.4143536,11.891859 -1.4200686,12.962001 -0.00237,0.445423 0.018727,0.553085 0.1276402,0.644921 0.224843,0.189593 0.6456524,0.240083 2.2153694,0.265616 2.465454,0.04008 6.563117,0.01558 7.577315,-0.04547 0.442018,-0.02661 0.83362,-0.07282 0.985469,-0.116271 0.127347,-0.03644 0.19938,-0.105175 0.239779,-0.228413 0.183266,-0.559014 0.284242,-2.762861 0.528651,-11.535211 0.09462,-3.395953 0.327628,-12.065804 0.327628,-12.196154 V 28.38328 h -4.653462 z m 9.365319,0 c -0.02265,0 -0.0351,0.02305 -0.03514,0.0646 -2.75e-4,0.280718 -0.39221,14.555803 -0.456303,16.621725 -0.141629,4.565158 -0.240104,6.463512 -0.364318,7.024894 -0.03938,0.177988 -0.106415,0.293492 -0.195336,0.335897 -0.15792,0.07531 -0.565444,0.12696 -1.358059,0.171566 -0.154347,0.0087 -0.811858,0.02299 -1.461407,0.03204 -1.103437,0.01543 -1.055775,0.01632 0.725019,0.01447 l 1.905828,-0.0021 0.140041,-0.06873 c 0.292283,-0.143507 0.471128,-0.406209 0.507463,-0.745691 0.01787,-0.166984 0.629192,-22.835049 0.62787,-23.279197 -4.24e-4,-0.134882 -0.0078,-0.1695 -0.03566,-0.1695 z"
       id="path904"
       inkscape:connector-curvature="0" />
    <path
       style="opacity:1;vector-effect:none;fill:#ffd898;fill-opacity:1;stroke:none;stroke-width:0.18497917;stroke-linecap:butt;stroke-linejoin:miter;stroke-miterlimit:4;stroke-dasharray:none;stroke-dashoffset:0;stroke-opacity:1"
       d="m 12.107788,28.38328 -0.01188,0.05271 c -0.01166,0.0532 -0.642601,5.201086 -1.262973,10.301179 -1.1223568,9.226907 -1.4143536,11.891859 -1.4200686,12.962001 -0.00237,0.445423 0.018727,0.553085 0.1276402,0.644921 0.224843,0.189593 0.6456524,0.240083 2.2153694,0.265616 2.465454,0.04008 6.563117,0.01558 7.577315,-0.04547 0.442018,-0.02661 0.83362,-0.07282 0.985469,-0.116271 0.190717,-0.05458 0.246714,-0.15575 0.311092,-0.559142 0.01929,-0.120864 0.04218,-0.315439 0.05064,-0.43253 0.0085,-0.117089 0.02369,-0.223303 0.03359,-0.236162 0.0099,-0.01286 0.0176,-0.112879 0.01757,-0.222207 -3.2e-5,-0.109332 0.01683,-0.499005 0.03721,-0.865582 0.08062,-1.450525 0.167417,-4.031525 0.318328,-9.448001 0.09462,-3.395953 0.327628,-12.065804 0.327628,-12.196154 V 28.38328 h -4.653462 z m 9.35705,0.02636 c -0.0033,0.0033 -0.0071,0.01003 -0.01085,0.02067 -0.0068,0.01929 -0.01858,0.345583 -0.02635,0.725022 -0.01997,0.974333 -0.234437,8.870627 -0.375687,13.832747 -0.170112,5.975948 -0.286904,8.486042 -0.422199,9.080066 -0.0665,0.29197 -0.13539,0.369993 -0.373102,0.422712 -0.23209,0.05147 -0.852649,0.108553 -1.391131,0.128158 -0.09647,0.0035 0.169642,0.0082 0.591695,0.01085 l 0.767395,0.0046 0.129709,-0.06305 c 0.263901,-0.129219 0.442712,-0.359767 0.49506,-0.638204 0.01329,-0.07074 0.03016,-0.344556 0.03772,-0.608229 0.0076,-0.263679 0.02404,-0.832083 0.03669,-1.262973 0.07163,-2.441776 0.488622,-17.985956 0.536919,-20.018417 0.013,-0.54665 0.02737,-1.119992 0.03256,-1.274339 0.0078,-0.231547 -0.005,-0.382521 -0.02842,-0.359669 z"
       id="path916"
       inkscape:connector-curvature="0" />
    <path
       style="opacity:1;vector-effect:none;fill:#ffd898;fill-opacity:1;stroke:none;stroke-width:0.73991668;stroke-linecap:butt;stroke-linejoin:miter;stroke-miterlimit:4;stroke-dasharray:none;stroke-dashoffset:0;stroke-opacity:1"
       d="m 10.968582,52.572197 c -1.4837857,-0.07753 -1.543481,-0.114319 -1.543481,-0.951328 0,-0.858872 0.316148,-3.799882 1.175859,-10.938621 1.180674,-9.803908 3.782528,-30.406014 4.262987,-33.7553668 0.182782,-1.2741989 -0.07807,-1.184148 3.416295,-1.1793696 3.21627,0.00439 3.41884,0.031716 3.598757,0.4853596 0.117694,0.2967434 0.08566,2.247937 -0.199793,12.1705978 -0.102626,3.567356 -0.228039,8.576654 -0.278696,11.131775 -0.144663,7.296917 -0.188634,9.224393 -0.243639,10.679281 -0.0282,0.746017 -0.07166,2.05096 -0.09657,2.899876 -0.02492,0.848916 -0.06887,2.280142 -0.09768,3.180506 -0.02881,0.900366 -0.04571,1.931691 -0.03756,2.291837 0.0081,0.360145 -0.01278,1.299726 -0.04652,2.087954 -0.05572,1.301813 -0.08059,1.455515 -0.271317,1.677252 l -0.209973,0.244104 -4.153067,0.01741 c -2.284187,0.0096 -4.658209,-0.009 -5.275601,-0.04126 z"
       id="path945"
       inkscape:connector-curvature="0" />
    <path
       style="opacity:1;vector-effect:none;fill:#ffd898;fill-opacity:1;stroke:none;stroke-width:0.73991668;stroke-linecap:butt;stroke-linejoin:miter;stroke-miterlimit:4;stroke-dasharray:none;stroke-dashoffset:0;stroke-opacity:1"
       d="M 10.828266,52.571144 C 9.4822589,52.48926 9.425101,52.449253 9.425101,51.588965 c 0,-1.101531 0.4070932,-4.722833 1.872827,-16.659693 C 13.60384,16.15001 14.891416,6.3056766 15.079202,6.0190826 15.257436,5.7470618 15.74706,5.6975397 18.218269,5.7015879 c 2.313995,0.00378 3.318809,0.093408 3.541646,0.3158728 0.239554,0.2391463 0.236466,1.50105 -0.02643,10.8109833 -0.131487,4.656169 -0.260535,9.64442 -0.286779,11.085002 -0.09528,5.230603 -0.147101,7.5175 -0.329615,14.546146 -0.102204,3.935875 -0.211659,7.721875 -0.243232,8.413331 -0.05473,1.198674 -0.06889,1.268503 -0.30412,1.500244 l -0.246716,0.243051 -4.256267,0.0073 c -2.340946,0.004 -4.698265,-0.01955 -5.238483,-0.05241 z"
       id="path947"
       inkscape:connector-curvature="0" />
    <path
       style="opacity:1;vector-effect:none;fill:#000000;fill-opacity:1;stroke:none;stroke-width:0.73991668;stroke-linecap:butt;stroke-linejoin:miter;stroke-miterlimit:4;stroke-dasharray:none;stroke-dashoffset:0;stroke-opacity:1"
       d="m 14.713831,6.9313606 c -0.01487,-0.018862 -0.02608,0.06114 -0.02687,0.2154899 -10e-4,0.2057982 0.01741,0.3007942 0.04082,0.2113571 0.02336,-0.089437 0.02442,-0.2577782 0.0021,-0.3741393 -0.0056,-0.029088 -0.01106,-0.046421 -0.01602,-0.052708 z M 10.748182,38.974881 c -0.02218,0 -0.04031,0.0072 -0.04031,0.01602 0,0.0088 -0.353851,2.886792 -0.7865132,6.395473 -0.6328066,5.13175 -0.785831,6.407396 -0.7808304,6.522601 0.00538,0.124807 0.014052,0.159155 0.067178,0.26665 0.1105217,0.223623 0.3562032,0.410699 0.611333,0.466122 0.085717,0.01863 0.9730976,0.02271 5.2032986,0.02377 2.805064,7.14e-4 5.09652,-0.0024 5.091678,-0.0072 -0.0029,-0.0029 -1.089628,-0.004 -1.903243,-0.0057 0.02227,-1.61e-4 0.03584,-3.49e-4 0.05788,-5.16e-4 0.01446,-1.08e-4 0.02335,-4.04e-4 0.03772,-5.16e-4 0.900832,-0.007 1.614117,-0.01633 1.86242,-0.02997 0.04632,-0.0025 0.08883,-0.0051 0.119373,-0.0078 0.0037,-5.32e-4 0.01481,-0.0011 0.02325,-0.0016 0.0011,-2.28e-4 0.0089,-2.89e-4 0.0098,-5.16e-4 1.04e-4,-2.7e-5 4.13e-4,2.6e-5 5.16e-4,0 1.01e-4,-2.4e-5 9.4e-4,2.4e-5 10e-4,0 0.0042,-0.0011 0.01123,-0.0062 0.01654,-0.0088 6.54e-4,-3.2e-4 0.0015,-8.07e-4 0.0021,-10e-4 0.01144,-0.004 0.02513,-0.01053 0.02842,-0.0072 0.0069,0.0069 0.05289,-0.0311 0.118341,-0.09095 3.67e-4,-3.01e-4 6.72e-4,-7.12e-4 10e-4,-10e-4 0.05183,-0.04277 0.102574,-0.08975 0.149863,-0.141078 0.04638,-0.05035 0.0858,-0.09946 0.110588,-0.142111 0.0035,-0.0045 0.0073,-0.0091 0.0093,-0.01292 0.03263,-0.06121 0.05386,-0.116215 0.07132,-0.18035 4.5e-5,-1.72e-4 4.68e-4,-3.47e-4 5.16e-4,-5.19e-4 v -5.16e-4 c 0.0041,-0.01426 0.009,-0.02606 0.01292,-0.04134 0.0044,-0.01704 0.0084,-0.05018 0.0124,-0.08217 1.38e-4,-10e-4 3.81e-4,-0.0021 5.16e-4,-0.0031 4.5e-5,-3.41e-4 -3.4e-5,-6.93e-4 0,-0.001 9.18e-4,-0.0071 0.0022,-0.01367 0.0031,-0.02119 3.2e-5,-2.51e-4 -8.2e-5,-6.69e-4 0,-10e-4 2.1e-5,-1.64e-4 3.87e-4,-2.99e-4 5.19e-4,-5.16e-4 1.3e-5,-1.3e-4 -1.6e-5,-3.89e-4 0,-5.16e-4 v -5.19e-4 c 2.19e-4,-0.0021 2.96e-4,-0.0025 5.16e-4,-0.0046 0.0038,-0.03762 0.0083,-0.08845 0.0124,-0.162267 0.0036,-0.04926 0.0088,-0.08906 0.01085,-0.147793 4.13e-4,-0.01179 0.0061,-0.218977 0.0067,-0.237713 0.0034,-0.09674 0.0065,-0.177088 0.01033,-0.301789 1.14e-4,-0.0036 4.05e-4,-0.0051 5.19e-4,-0.0088 7.78e-4,-0.02544 0.0053,-0.187224 0.0062,-0.218075 0.03372,-1.05098 0.08864,-3.079289 0.201023,-7.237285 0.04535,-1.678038 0.08996,-3.310102 0.09922,-3.626652 0.0047,-0.160628 0.0064,-0.264046 0.0088,-0.388091 2.14e-4,-0.009 0.0019,-0.07392 0.0021,-0.08216 v -0.0083 l 0.01137,-0.475425 h -5.219835 -5.219837 l -0.0026,0.04548 -0.0026,0.04547 -0.0052,-0.03462 v -5.16e-4 c 1.59e-4,-8.44e-4 5.13e-4,-0.002 5.16e-4,-0.0021 0.007,-0.04808 0.0035,-0.05374 -0.03255,-0.05374 z M 9.148278,51.695553 c -0.00304,-0.01165 -0.00443,0.0058 -0.00568,0.02119 -9.023e-4,0.0044 -0.0031,-7.7e-4 -0.0031,0.0078 0,0.0085 0.0022,0.0034 0.0031,0.0078 0.00125,0.0154 0.00264,0.03285 0.00568,0.02119 0.00415,-0.01591 0.00415,-0.04195 0,-0.05788 z m 0.24443,0.01963 c 0.00121,-0.0016 0.00261,-0.0029 0.00413,0.0052 h -5.159e-4 c 0.00402,0.02057 0.00413,0.05032 0,0.06615 -0.00219,0.0083 -0.00231,-0.01177 -0.00362,-0.01964 -1.772e-4,-0.0079 -8.995e-4,-0.0017 -0.00103,-0.01034 -5.82e-5,-0.0038 4.5e-5,-4.29e-4 0,-0.0046 0,-0.0029 2.7e-6,3.6e-4 0,-0.0026 0,-0.0159 4.683e-4,-10e-4 5.186e-4,-0.01499 6.09e-5,-0.0178 2.17e-4,-0.01505 5.159e-4,-0.01912 z m 1.229381,0.874366 c 0.01193,-0.0048 0.02602,-0.0045 0.03152,0.001 0.002,0.002 -0.0062,0.0017 -0.0078,0.0031 -0.0018,4.28e-4 -6.72e-4,9.21e-4 -0.0124,10e-4 h -5.16e-4 c -0.0087,-8.1e-4 -0.0095,-0.0019 -0.01292,-0.0031 0.0012,-7.15e-4 1.14e-4,-0.0013 0.0021,-0.0021 z m 4.985226,0.04858 c 0.05263,-0.0033 0.134485,-0.0033 0.181901,0 0.02768,0.0019 -0.02848,0.0025 -0.05581,0.0036 -0.01622,2.4e-5 -5.55e-4,-1.6e-5 -0.03772,0 -0.03816,-8.2e-5 -0.0096,-4.21e-4 -0.04496,-5.19e-4 -0.01595,-0.0011 -0.06988,-0.0015 -0.04341,-0.0031 z"
       id="path949"
       inkscape:connector-curvature="0" />
    <path
       style="opacity:1;vector-effect:none;fill:#000000;fill-opacity:1;stroke:none;stroke-width:2.45057368;stroke-linecap:butt;stroke-linejoin:miter;stroke-miterlimit:4;stroke-dasharray:none;stroke-dashoffset:0;stroke-opacity:1"
       d="m 114.83421,75.253152 h 4.51982 c 0.44523,0 0.84261,0.492797 0.80367,1.101931 l -2.24506,35.120327 c -0.0389,0.60912 -0.35844,1.10193 -0.80367,1.10193 h -7.46647 c -0.44523,0 -0.89253,-0.50078 -0.80366,-1.10193 l 5.19171,-35.120327 c 0.0889,-0.601161 0.35843,-1.101931 0.80366,-1.101931 z"
       id="rect984"
       inkscape:connector-curvature="0"
       sodipodi:nodetypes="sssssssss" />
    <path
       style="opacity:1;vector-effect:none;fill:#000000;fill-opacity:1;stroke:none;stroke-width:2.07838821;stroke-linecap:butt;stroke-linejoin:miter;stroke-miterlimit:4;stroke-dasharray:none;stroke-dashoffset:0;stroke-opacity:1"
       d="m 124.95604,80.30455 h -3.76003 c -0.37039,0 -0.6821,0.425215 -0.66859,0.952798 l 0.7782,30.367192 c 0.0135,0.52757 0.29818,0.9528 0.66857,0.9528 h 6.21137 c 0.37038,0 0.72409,-0.43054 0.66856,-0.9528 l -3.22951,-30.367192 c -0.0556,-0.522274 -0.29818,-0.952798 -0.66857,-0.952798 z"
       id="rect984-3"
       inkscape:connector-curvature="0"
       sodipodi:nodetypes="sssssssss" />
    <path
       id="path1004"
       style="opacity:1;vector-effect:none;fill:#000000;fill-opacity:1;stroke:none;stroke-width:3.98020315;stroke-linecap:butt;stroke-linejoin:miter;stroke-miterlimit:4;stroke-dasharray:none;stroke-dashoffset:0;stroke-opacity:1"
       d="m 132.91981,112.12985 c -0.84014,0.68891 -2.07911,0.56913 -2.77176,-0.26793 -0.69266,-0.83704 -0.57843,-2.07652 0.25551,-2.77292 0.83394,-0.69639 2.07394,-0.58773 2.77781,0.26291 0.7039,0.85064 0.57858,2.08905 -0.26156,2.77794 z"
       inkscape:connector-curvature="0"
       sodipodi:nodetypes="ccscc" />
    <rect
       style="opacity:1;vector-effect:none;fill:#ffd898;fill-opacity:1;stroke:none;stroke-width:2.09280038;stroke-linecap:butt;stroke-linejoin:miter;stroke-miterlimit:4;stroke-dasharray:none;stroke-dashoffset:0;stroke-opacity:1"
       id="rect1016"
       width="5.1538672"
       height="24.935593"
       x="58.573051"
       y="85.506004"
       rx="0.91487354" />
    <rect
       style="opacity:1;vector-effect:none;fill:#ffd898;fill-opacity:1;stroke:none;stroke-width:2.09280038;stroke-linecap:butt;stroke-linejoin:miter;stroke-miterlimit:4;stroke-dasharray:none;stroke-dashoffset:0;stroke-opacity:1"
       id="rect1016-0"
       width="5.1538672"
       height="24.935593"
       x="73.827278"
       y="68.527969"
       rx="0.9148736"
       inkscape:transform-center-x="0.4827172"
       inkscape:transform-center-y="3.0665172"
       transform="rotate(15)" />
    <rect
       style="opacity:1;vector-effect:none;fill:#ffd898;fill-opacity:1;stroke:none;stroke-width:2.09280038;stroke-linecap:butt;stroke-linejoin:miter;stroke-miterlimit:4;stroke-dasharray:none;stroke-dashoffset:0;stroke-opacity:1"
       id="rect1016-0-4"
       width="5.1538672"
       height="24.935593"
       x="85.170837"
       y="50.612885"
       rx="0.9148736"
       inkscape:transform-center-x="1.2599351"
       inkscape:transform-center-y="2.837092"
       transform="rotate(30)" />
    <rect
       style="opacity:1;vector-effect:none;fill:#ffd898;fill-opacity:1;stroke:none;stroke-width:2.09280038;stroke-linecap:butt;stroke-linejoin:miter;stroke-miterlimit:4;stroke-dasharray:none;stroke-dashoffset:0;stroke-opacity:1"
       id="rect1016-0-4-0"
       width="5.1538672"
       height="24.935593"
       x="91.949097"
       y="33.228153"
       rx="0.9148736"
       inkscape:transform-center-x="1.951293"
       inkscape:transform-center-y="2.4143248"
       transform="rotate(45)" />
    <rect
       style="opacity:1;vector-effect:none;fill:#ffd898;fill-opacity:1;stroke:none;stroke-width:2.09280038;stroke-linecap:butt;stroke-linejoin:miter;stroke-miterlimit:4;stroke-dasharray:none;stroke-dashoffset:0;stroke-opacity:1"
       id="rect1016-0-4-0-5"
       width="5.1538672"
       height="24.935593"
       x="95.454094"
       y="16.367075"
       rx="0.91487366"
       inkscape:transform-center-x="2.5096729"
       inkscape:transform-center-y="1.8270314"
       transform="rotate(60)" />
    <rect
       style="opacity:1;vector-effect:none;fill:#ffd898;fill-opacity:1;stroke:none;stroke-width:2.09280038;stroke-linecap:butt;stroke-linejoin:miter;stroke-miterlimit:4;stroke-dasharray:none;stroke-dashoffset:0;stroke-opacity:1"
       id="rect1016-9"
       width="5.1538672"
       height="24.935593"
       x="139.58318"
       y="52.516045"
       rx="0.9148736"
       inkscape:transform-center-x="-5.5859241"
       inkscape:transform-center-y="-11.461654"
       transform="rotate(37.622348)" />
    <rect
       style="opacity:1;vector-effect:none;fill:#ffd898;fill-opacity:1;stroke:none;stroke-width:2.09280038;stroke-linecap:butt;stroke-linejoin:miter;stroke-miterlimit:4;stroke-dasharray:none;stroke-dashoffset:0;stroke-opacity:1"
       id="rect1016-4"
       width="5.1538672"
       height="24.935593"
       x="136.58264"
       y="65.803596"
       rx="0.9148736"
       inkscape:transform-center-x="-4.0110794"
       inkscape:transform-center-y="-12.11306"
       transform="rotate(30.166976)" />
    <rect
       style="opacity:1;vector-effect:none;fill:#ffd898;fill-opacity:1;stroke:none;stroke-width:2.09280038;stroke-linecap:butt;stroke-linejoin:miter;stroke-miterlimit:4;stroke-dasharray:none;stroke-dashoffset:0;stroke-opacity:1"
       id="rect1016-6"
       width="5.1538672"
       height="24.935593"
       x="140.22568"
       y="42.94944"
       rx="0.9148736"
       inkscape:transform-center-x="-6.7743045"
       inkscape:transform-center-y="-10.779759"
       transform="rotate(43.866403)" />
    <rect
       style="opacity:1;vector-effect:none;fill:#ffd898;fill-opacity:1;stroke:none;stroke-width:2.09280038;stroke-linecap:butt;stroke-linejoin:miter;stroke-miterlimit:4;stroke-dasharray:none;stroke-dashoffset:0;stroke-opacity:1"
       id="rect1016-92"
       width="5.1538672"
       height="24.935593"
       x="128.99446"
       y="84.141083"
       rx="0.9148736"
       inkscape:transform-center-x="-2.0432522"
       inkscape:transform-center-y="-12.585595"
       transform="rotate(20.861079)" />
    <rect
       style="opacity:1;vector-effect:none;fill:#ffd898;fill-opacity:1;stroke:none;stroke-width:2.09280038;stroke-linecap:butt;stroke-linejoin:miter;stroke-miterlimit:4;stroke-dasharray:none;stroke-dashoffset:0;stroke-opacity:1"
       id="rect1016-2"
       width="5.1538672"
       height="24.935593"
       x="116.78064"
       y="104.56948"
       rx="0.9148736"
       inkscape:transform-center-x="0.24401401"
       inkscape:transform-center-y="-12.702214"
       transform="rotate(10.581696)" />
    <rect
       style="opacity:1;vector-effect:none;fill:#ffd898;fill-opacity:1;stroke:none;stroke-width:2.09280038;stroke-linecap:butt;stroke-linejoin:miter;stroke-miterlimit:4;stroke-dasharray:none;stroke-dashoffset:0;stroke-opacity:1"
       id="rect1016-47"
       width="5.1538672"
       height="24.935593"
       x="100.50892"
       y="124.75848"
       rx="0.9148736"
       inkscape:transform-center-x="5.2384827"
       inkscape:transform-center-y="1.5902537" />
    <rect
       style="opacity:1;vector-effect:none;fill:#ffd898;fill-opacity:1;stroke:none;stroke-width:2.09280038;stroke-linecap:butt;stroke-linejoin:miter;stroke-miterlimit:4;stroke-dasharray:none;stroke-dashoffset:0;stroke-opacity:1"
       id="rect1016-9-3"
       width="5.1538672"
       height="24.935593"
       x="271.99811"
       y="32.421715"
       rx="0.91487366"
       inkscape:transform-center-x="-8.2380722"
       inkscape:transform-center-y="-9.6592755"
       transform="rotate(51.935281)" />
    <rect
       style="opacity:1;vector-effect:none;fill:#ffd898;fill-opacity:1;stroke:none;stroke-width:2.09280038;stroke-linecap:butt;stroke-linejoin:miter;stroke-miterlimit:4;stroke-dasharray:none;stroke-dashoffset:0;stroke-opacity:1"
       id="rect1016-4-6"
       width="5.1538672"
       height="24.935593"
       x="268.88098"
       y="65.144226"
       rx="0.91487366"
       inkscape:transform-center-x="-6.6290037"
       inkscape:transform-center-y="-10.979077"
       transform="rotate(43.33444)" />
    <rect
       style="opacity:1;vector-effect:none;fill:#ffd898;fill-opacity:1;stroke:none;stroke-width:2.09280038;stroke-linecap:butt;stroke-linejoin:miter;stroke-miterlimit:4;stroke-dasharray:none;stroke-dashoffset:0;stroke-opacity:1"
       id="rect1016-6-8"
       width="5.1538672"
       height="24.935593"
       x="269.95703"
       y="13.853099"
       rx="0.91487366"
       inkscape:transform-center-x="-9.1383266"
       inkscape:transform-center-y="-8.8396683"
       transform="rotate(57.840385)" />
    <rect
       style="opacity:1;vector-effect:none;fill:#ffd898;fill-opacity:1;stroke:none;stroke-width:2.09280038;stroke-linecap:butt;stroke-linejoin:miter;stroke-miterlimit:4;stroke-dasharray:none;stroke-dashoffset:0;stroke-opacity:1"
       id="rect1016-92-0"
       width="5.1538672"
       height="24.935593"
       x="254.737"
       y="113.00601"
       rx="0.91487366"
       inkscape:transform-center-x="-4.1985658"
       inkscape:transform-center-y="-12.02163"
       transform="rotate(31.552305)" />
    <rect
       style="opacity:1;vector-effect:none;fill:#ffd898;fill-opacity:1;stroke:none;stroke-width:2.09280038;stroke-linecap:butt;stroke-linejoin:miter;stroke-miterlimit:4;stroke-dasharray:none;stroke-dashoffset:0;stroke-opacity:1"
       id="rect1016-2-2"
       width="5.1538672"
       height="24.935593"
       x="220.52711"
       y="173.27309"
       rx="0.91487366"
       inkscape:transform-center-x="-0.96508562"
       inkscape:transform-center-y="-12.677438"
       transform="rotate(16.241985)" />
    <rect
       style="opacity:1;vector-effect:none;fill:#ffd898;fill-opacity:1;stroke:none;stroke-width:2.09280038;stroke-linecap:butt;stroke-linejoin:miter;stroke-miterlimit:4;stroke-dasharray:none;stroke-dashoffset:0;stroke-opacity:1"
       id="rect1016-47-1"
       width="5.1538672"
       height="24.935593"
       x="168.04793"
       y="228.26529"
       rx="0.91487366"
       inkscape:transform-center-x="5.2384827"
       inkscape:transform-center-y="1.5902537" />
    <rect
       style="opacity:1;vector-effect:none;fill:#ffd898;fill-opacity:1;stroke:none;stroke-width:2.09280038;stroke-linecap:butt;stroke-linejoin:miter;stroke-miterlimit:4;stroke-dasharray:none;stroke-dashoffset:0;stroke-opacity:1"
       id="rect1016-9-3-0"
       width="5.1538672"
       height="24.935593"
       x="151.008"
       y="125.1578"
       rx="0.91487366" />
    <rect
       style="opacity:1;vector-effect:none;fill:#ffd898;fill-opacity:1;stroke:none;stroke-width:2.09280038;stroke-linecap:butt;stroke-linejoin:miter;stroke-miterlimit:4;stroke-dasharray:none;stroke-dashoffset:0;stroke-opacity:1"
       id="rect1016-4-6-5"
       width="5.1538672"
       height="24.935593"
       x="162.96819"
       y="125.1578"
       rx="0.91487366" />
    <rect
       style="opacity:1;vector-effect:none;fill:#ffd898;fill-opacity:1;stroke:none;stroke-width:2.09280038;stroke-linecap:butt;stroke-linejoin:miter;stroke-miterlimit:4;stroke-dasharray:none;stroke-dashoffset:0;stroke-opacity:1"
       id="rect1016-6-8-1"
       width="5.1538672"
       height="24.935593"
       x="139.04781"
       y="124.89321"
       rx="0.91487366"
       inkscape:transform-center-x="-25.25697"
       inkscape:transform-center-y="1.122532" />
    <rect
       style="opacity:1;vector-effect:none;fill:#ffd898;fill-opacity:1;stroke:none;stroke-width:2.09280038;stroke-linecap:butt;stroke-linejoin:miter;stroke-miterlimit:4;stroke-dasharray:none;stroke-dashoffset:0;stroke-opacity:1"
       id="rect1016-92-0-1"
       width="5.1538672"
       height="24.935593"
       x="174.92838"
       y="125.1578"
       rx="0.91487366"
       inkscape:transform-center-x="20.112032"
       inkscape:transform-center-y="-0.56126601" />
    <rect
       style="opacity:1;vector-effect:none;fill:#ffd898;fill-opacity:1;stroke:none;stroke-width:2.09280038;stroke-linecap:butt;stroke-linejoin:miter;stroke-miterlimit:4;stroke-dasharray:none;stroke-dashoffset:0;stroke-opacity:1"
       id="rect1016-2-2-0"
       width="5.1538672"
       height="24.935593"
       x="186.88857"
       y="125.1578"
       rx="0.91487366"
       inkscape:transform-center-x="5.3320271"
       inkscape:transform-center-y="1.2160764" />
    <rect
       style="opacity:1;vector-effect:none;fill:#ffd898;fill-opacity:1;stroke:none;stroke-width:2.09280038;stroke-linecap:butt;stroke-linejoin:miter;stroke-miterlimit:4;stroke-dasharray:none;stroke-dashoffset:0;stroke-opacity:1"
       id="rect1016-47-1-8"
       width="5.1538672"
       height="24.935593"
       x="198.84875"
       y="125.1578"
       rx="0.91487366"
       inkscape:transform-center-x="5.2384827"
       inkscape:transform-center-y="1.5902537" />
    <text
       xml:space="preserve"
       style="font-style:normal;font-variant:normal;font-weight:normal;font-stretch:normal;font-size:1.76388884px;line-height:1.25;font-family:sans-serif;-inkscape-font-specification:'sans-serif, Normal';font-variant-ligatures:normal;font-variant-caps:normal;font-variant-numeric:normal;font-feature-settings:normal;text-align:start;letter-spacing:0px;word-spacing:0px;writing-mode:lr-tb;text-anchor:start;fill:#000000;fill-opacity:1;stroke:none;stroke-width:0.26458332"
       x="119.0164"
       y="257.73569"
       id="text4989"><tspan
         sodipodi:role="line"
         id="tspan4987"
         x="119.0164"
         y="257.73569"
         style="stroke-width:0.26458332">Make the pillars taller - would look more balanced.</tspan></text>
  </g>
</svg>
